<?xml version="1.0" standalone="no"?>
<!DOCTYPE svg PUBLIC "-//W3C//DTD SVG 20010904//EN"
 "http://www.w3.org/TR/2001/REC-SVG-20010904/DTD/svg10.dtd">
<svg version="1.0" xmlns="http://www.w3.org/2000/svg"
 width="64.000000pt" height="64.000000pt" viewBox="0 0 64.000000 64.000000"
 preserveAspectRatio="xMidYMid meet">

<g transform="translate(0.000000,64.000000) scale(0.100000,-0.100000)"
fill="#000000" stroke="none">
<path d="M516 538 c-33 -39 -36 -40 -36 -17 0 53 -12 51 -120 -18 -77 -50
-116 -69 -150 -73 l-45 -5 -3 -99 c-2 -66 1 -103 9 -113 10 -11 1 -25 -49 -76
-34 -35 -62 -66 -62 -70 0 -20 27 0 93 68 40 41 77 75 83 75 5 0 59 -31 119
-70 78 -49 111 -66 117 -57 4 7 8 95 8 197 l0 186 50 49 c28 27 50 53 50 57 0
21 -32 4 -64 -34z m-155 -162 l-91 -91 0 65 0 65 88 56 87 57 3 -31 c3 -27 -7
-41 -87 -121z m87 -185 l-3 -79 -87 57 c-49 31 -88 63 -88 71 0 8 39 54 88
103 l87 88 3 -81 c2 -44 2 -116 0 -159z m-198 147 c0 -52 -4 -76 -17 -90 -34
-38 -43 -23 -43 72 l0 90 30 0 30 0 0 -72z"/>
</g>
</svg>
