<?xml version="1.0" standalone="no"?>
<!DOCTYPE svg PUBLIC "-//W3C//DTD SVG 20010904//EN"
 "http://www.w3.org/TR/2001/REC-SVG-20010904/DTD/svg10.dtd">
<svg version="1.0" xmlns="http://www.w3.org/2000/svg"
 width="64.000000pt" height="64.000000pt" viewBox="0 0 64.000000 64.000000"
 preserveAspectRatio="xMidYMid meet">

<g transform="translate(0.000000,64.000000) scale(0.100000,-0.100000)"
fill="#000000" stroke="none">
<path d="M235 500 c-92 -59 -115 -70 -152 -70 l-43 0 0 -110 0 -110 43 0 c37
0 60 -11 152 -70 80 -52 111 -67 117 -58 10 17 10 459 0 476 -6 9 -37 -6 -117
-58z m93 -284 l-3 -104 -87 57 -88 56 0 95 0 95 88 56 87 57 3 -104 c1 -57 1
-151 0 -208z m-198 104 l0 -90 -30 0 -30 0 0 90 0 90 30 0 30 0 0 -90z"/>
<path d="M510 475 c0 -3 12 -24 27 -46 37 -56 43 -132 14 -185 -12 -21 -27
-47 -33 -56 -13 -19 -6 -34 11 -23 6 3 23 27 38 52 44 75 33 179 -25 246 -14
16 -32 23 -32 12z"/>
<path d="M440 393 c0 -5 7 -17 15 -27 19 -25 19 -49 -1 -87 -20 -39 -9 -52 17
-20 33 40 19 141 -20 141 -6 0 -11 -3 -11 -7z"/>
</g>
</svg>
